<?xml version="1.0" standalone="no"?><!DOCTYPE svg PUBLIC "-//W3C//DTD SVG 1.1//EN" "http://www.w3.org/Graphics/SVG/1.1/DTD/svg11.dtd"><svg t="1599395371244" class="icon" viewBox="0 0 1024 1024" version="1.1" xmlns="http://www.w3.org/2000/svg" p-id="2402" xmlns:xlink="http://www.w3.org/1999/xlink" width="200" height="200"><defs><style type="text/css"></style></defs><path d="M853.333 0H170.667A171.093 171.093 0 0 0 0 170.667v682.666C0 947.2 76.8 1024 170.667 1024h682.666C947.2 1024 1024 947.2 1024 853.333V170.667C1024 76.8 947.2 0 853.333 0z m-93.312 719.147c-8.533 20.565-22.058 38.698-39.381 52.65-17.92 14.507-40.619 26.454-68.565 34.987-27.904 8.661-61.099 13.013-99.542 13.013H278.101V222.464H568.32c53.675 0 96.683 12.075 128.853 36.693 32.427 24.747 48.555 61.611 48.555 111.36 0 30.08-7.339 55.894-22.101 77.227-14.678 21.205-35.84 37.803-63.147 49.323v1.962c36.437 7.68 64.64 24.96 83.2 51.84s28.075 60.843 28.075 101.846c0 22.954-4.438 44.8-12.8 65.194l1.066 1.152z m-118.442-147.2c-17.494-16-42.07-23.808-73.814-23.808H383.36v186.368h184.917c31.574 0 56.32-8.192 73.814-24.747 17.493-16.427 26.453-39.85 26.453-69.973-0.299-29.44-8.96-52.224-26.453-67.84h-0.726z m-25.6-120.448c16.896-14.336 25.173-34.859 25.173-61.611 0-30.037-7.467-51.37-22.613-63.573-15.019-12.16-36.694-18.475-65.195-18.475H382.677v164.821h170.667c24.875 0 46.08-7.253 62.464-21.162z" fill="#6F42C1" p-id="2403"></path></svg>